# xmcd CD database file
#
# Track frame offsets:
#	150
#	10783
#	28916
#	38724
#	57315
#	70814
#	80562
#	94238
#	107916
#	124193
#	139936
#	155506
#	162299
#	178518
#
# Disc length: 2534 seconds
#
# Revision: 0
# Processed by: cddbd v1.5.1PL2 Copyright (c) Steve Scherf et al.
# Submitted via: CDex 1.51
#
DISCID=bc09e40e
DTITLE=Garth Brooks - Christmas
DYEAR=1988
DGENRE=Country
TTITLE0=Home for the Holidays
TTITLE1=Baby Jesus is Born
TTITLE2=Call me Claus
TTITLE3=Have Yourself a Merry Little Christmas
TTITLE4=Its the Most Wonderful Time of the Year
TTITLE5=Let it Snow
TTITLE6=Mary Had a Little Lamb
TTITLE7=O Little Town Of Bethlehem
TTITLE8=Silver Bells
TTITLE9=Sleigh Ride
TTITLE10=The Christmas Song
TTITLE11=The Wise Mens Journey
TTITLE12=Winter Wonderland
TTITLE13=Zat You Santa Claus
EXTD=YEAR: 1988
EXTT0=
EXTT1=
EXTT2=
EXTT3=
EXTT4=
EXTT5=
EXTT6=
EXTT7=
EXTT8=
EXTT9=
EXTT10=
EXTT11=
EXTT12=
EXTT13=
PLAYORDER=
